<?xml version="1.0" encoding="utf-8"?>
<!-- Generator: Adobe Illustrator 23.0.1, SVG Export Plug-In . SVG Version: 6.00 Build 0)  -->
<svg version="1.1" id="Layer_1" xmlns="http://www.w3.org/2000/svg" xmlns:xlink="http://www.w3.org/1999/xlink" x="0px" y="0px"
	 viewBox="0 0 372.5 434.8" style="enable-background:new 0 0 372.5 434.8;" xml:space="preserve">
<style type="text/css">
	.st0{fill:#E92E2F;stroke:#E92E2F;stroke-width:9.375000e-02;stroke-miterlimit:10;}
	.st1{fill:#0774BB;stroke:#0774BB;stroke-width:9.375000e-02;stroke-miterlimit:10;}
</style>
<path class="st0" d="M214.6,13.3c9.4,10.7,12.5,26,9.8,39.8c-2.9,15.5-11.5,29.2-21.6,41c-8.1,9.5-17.4,17.9-27.1,25.7
	c-11.3,9.1-22.4,18.9-29.5,31.7c-6,10.4-7.4,23.2-3.3,34.5c6.7,19.4,22.3,33.8,30.8,52.1c-9.4-8.3-18.6-16.9-27.2-26
	c-9-9.6-17.5-19.8-23.1-31.8c-3.8-8.4-5.5-18.2-2.6-27.1c2.9-9.1,9.4-16.4,15.9-23.2c18.1-18.1,40.4-31.4,58.1-49.8
	c9.8-10.1,17.9-22.2,20.7-36.1C217.8,33.9,216.7,23.4,214.6,13.3L214.6,13.3z"/>
<path class="st0" d="M199.8,127.2c19.4-14.3,42.1-23.4,65.1-30c-18.2,11.6-37.2,22.2-52.9,37.1c-5.7,5.5-11.1,11.8-13.6,19.5
	c-1.9,5.7-1.1,12,1.2,17.4c4.2,9.6,11.3,17.4,16.7,26.2c4.6,7.5,5.4,17.1,1.9,25.2c-5.3,11.9-15.7,20.6-26.5,27.5
	c-1.4,0.8-2.6,2.3-4.3,2.5c7.2-6.5,12.8-15.7,12.6-25.6c-0.2-7.4-4.3-13.9-9.1-19.2c-9.9-11.8-18.2-26.8-16.5-42.7
	C176.1,149.2,187.5,136.4,199.8,127.2L199.8,127.2z"/>
<path class="st1" d="M268.6,242.8c4.2-5.1,10.9-6.4,17-7.2c10.6-1.4,21.9,1.3,29.9,8.6c6.6,5.9,10.3,15.1,8.9,24
	c-1.5,10.3-8.4,18.9-16.2,25.4c-14.1,11.3-31.5,17.9-48.9,22.3c1-1.1,2.1-2.1,3.4-2.9c13.2-7.1,26.3-15.4,36-27
	c5.9-7.2,10.5-16.6,8.6-26.1c-2-11-12.7-19-23.6-19.6C278.5,239.8,273.6,241.8,268.6,242.8L268.6,242.8z"/>
<path class="st1" d="M67.6,251.9c18.4-7.9,38.4-13,58.5-12.7c-11.7,3.4-23.7,6.3-34.7,11.5c-2.6,1.4-5.6,2.7-7.1,5.4
	c-0.8,2.1,1.4,3.5,3,4.2c6.8,2.8,14.3,3.2,21.6,3.9c25.6,1.7,51.3,0.7,76.8-0.9c25.2-1.6,50.2-5,75.1-9c-5.5,2.6-11.1,5.2-16.2,8.5
	c-2.6,1.8-5.8,2.3-8.7,3c-30.6,6.8-62,8.9-93.2,9.4c-12.1,0.1-24.1-0.1-36.1-0.9c-13.4-0.9-26.9-1.9-40-5.4c-3.8-1.1-7.8-2.3-10.8-5
	c-1.5-1.2-1.5-3.6-0.2-5C58.9,255.5,63.5,253.9,67.6,251.9L67.6,251.9z"/>
<path class="st1" d="M91.2,294.6c5.2-4.1,11.4-6.4,17.6-8.6c-2,2.4-4.8,4.7-5,8c-0.1,2.1,1.6,3.7,3.3,4.7c3.3,1.7,7,2.3,10.7,2.8
	c19.2,2,38.6,3.1,58,1.8c17.7-0.9,35.3-3.8,52.8-6.9c4.8,4.5,10.5,7.6,16.5,10.3c-21.1,6.2-42.8,9.8-64.6,11.5
	c-20.6,1.4-41.5,1.3-62-2c-8.1-1.5-16.4-3.2-23.8-7c-3-1.6-6.4-3.7-7.3-7.2C86.8,299,89,296.3,91.2,294.6L91.2,294.6z"/>
<path class="st1" d="M102.8,338.2c4.6-3.7,10.3-5.6,15.9-7.2c-1.8,1.7-5,3.8-3.6,6.7c2.7,3.5,7.7,3.9,11.7,4.8
	c16.9,2.1,34,3.5,50.9,2.2c12.8-0.8,25.4-3.1,37.9-5.3c7.2,4.2,14.7,7.8,22.4,11c-11.8,5.3-24.5,8.7-37.2,11.1
	c-21.4,3.8-43.5,4.3-65,0.9c-9.5-1.7-19.2-3.9-27.8-8.6c-3.3-1.9-6.8-4.1-8.2-7.8C98.7,343.1,100.5,340,102.8,338.2L102.8,338.2z"/>
<path class="st1" d="M47.3,366.5c9.2-3.1,18.7-5.6,28.4-5.9c3.9-0.1,7.9,0.1,11.3,2.1c-11.6,0.7-23.2,3.6-33.6,8.9
	c-2.3,1.3-4.9,2.8-5.8,5.5c0,3.1,3.5,4.1,5.8,5.1c14.5,5.4,30,7.1,45.2,8.7c45.3,3.8,90.9,2.8,136.2-1.3c17.1-1.9,34.3-3.8,50.9-8.5
	c5.3-1.8,11.3-3.6,14.8-8.3c2.1-2.8,0.7-6.3-1.4-8.7c3.4,1.9,8.2,4.3,7.5,8.9c-1.3,4.8-6.2,7.3-10.2,9.6
	c-12.8,6.5-26.9,9.8-40.9,12.7c-40.7,8-82.4,9.8-123.8,8.6c-31.2-1.1-62.4-4.1-93.2-9.4c-5.5-1.3-11.7-2.4-15.7-6.7
	c-2.6-3-0.3-7.2,2.2-9.4C31.3,372.6,39.4,369.4,47.3,366.5L47.3,366.5z"/>
<path class="st1" d="M296.5,400.7c10.1-3.5,20.9-7.2,28.4-15.2c-1.3,8.7-8.8,14.7-16.2,18.6c-14.2,7.4-30.1,10.8-45.9,13.6
	c-33.4,5.3-67.3,6.6-101.2,6c-23.1-0.7-46.4-1.6-69.1-6.4c-5.4-1.5-11.2-2.5-15.9-5.7c20.2,3.4,40.7,4.8,61.2,5.6
	c33.7,1,67.5-0.3,101-4.5C258.2,410,277.7,406.7,296.5,400.7L296.5,400.7z"/>
</svg>
