<svg width="62" height="62" viewBox="0 0 62 62" fill="none" xmlns="http://www.w3.org/2000/svg">
<path d="M0 0H62V62H0V0Z" fill="#F7DF1E"/>
<path d="M16.2992 51.8039L21.0461 48.9219C21.9664 50.5445 22.7898 51.925 24.8 51.925C26.7133 51.925 27.9242 51.1742 27.9242 48.268V28.457H33.7609V48.3406C33.7609 54.3711 30.225 57.132 25.0664 57.132C20.3922 57.132 17.6797 54.7344 16.2992 51.8039Z" fill="black"/>
<path d="M36.9094 51.1986L41.6563 48.4619C42.9157 50.4963 44.5383 51.9979 47.3962 51.9979C49.818 51.9979 51.3438 50.7869 51.3438 49.1158C51.3438 47.1299 49.7696 46.4033 47.1055 45.2408L45.6524 44.6111C41.4383 42.8189 38.6532 40.5666 38.6532 35.8197C38.6532 31.4604 41.9711 28.1182 47.1782 28.1182C50.8836 28.1182 53.5477 29.4018 55.461 32.7682L50.9321 35.6744C49.9391 33.8822 48.8493 33.1799 47.1782 33.1799C45.4829 33.1799 44.393 34.2697 44.393 35.6744C44.393 37.4182 45.4829 38.1205 47.9774 39.2104L49.4305 39.84C54.3711 41.9713 57.1805 44.1268 57.1805 48.9947C57.1805 54.2502 53.0633 57.108 47.5172 57.108C42.1165 57.1322 38.6047 54.565 36.9094 51.1986Z" fill="black"/>
</svg>
