<svg width="75" height="75" viewBox="0 0 75 75" fill="none" xmlns="http://www.w3.org/2000/svg">
<path d="M37.0392 0C18.1129 1.34993e-06 19.2948 8.20757 19.2948 8.20757L19.3159 16.7105H37.3767V19.2635H12.1422C12.1422 19.2635 0.03125 17.89 0.03125 36.9868C0.0312487 56.0836 10.6019 55.4064 10.6019 55.4064H16.9106V46.5447C16.9106 46.5447 16.5705 35.974 27.3124 35.974H45.2256C45.2256 35.974 55.2899 36.1367 55.2899 26.2473V9.8955C55.2899 9.8955 56.818 0 37.0392 0ZM27.0804 5.71787C28.8773 5.71787 30.3296 7.17021 30.3296 8.96714C30.3296 10.7641 28.8773 12.2164 27.0804 12.2164C25.2834 12.2164 23.8311 10.7641 23.8311 8.96714C23.8311 7.17021 25.2834 5.71787 27.0804 5.71787Z" fill="url(#paint0_linear)"/>
<path d="M37.577 74.1651C56.5032 74.1651 55.3213 65.9575 55.3213 65.9575L55.3002 57.4546H37.2394V54.9016H62.474C62.474 54.9016 74.5849 56.2751 74.5849 37.1783C74.5849 18.0815 64.0142 18.7587 64.0142 18.7587H57.7055V27.6204C57.7055 27.6204 58.0456 38.1911 47.3037 38.1911H29.3905C29.3905 38.1911 19.3262 38.0284 19.3262 47.9178V64.2696C19.3262 64.2696 17.7982 74.1651 37.577 74.1651ZM47.5358 68.4472C45.7388 68.4472 44.2865 66.9949 44.2865 65.198C44.2865 63.401 45.7388 61.9487 47.5358 61.9487C49.3327 61.9487 50.785 63.401 50.785 65.198C50.785 66.9949 49.3327 68.4472 47.5358 68.4472Z" fill="url(#paint1_linear)"/>
<defs>
<linearGradient id="paint0_linear" x1="7.19597" y1="6.67095" x2="44.1419" y2="43.2483" gradientUnits="userSpaceOnUse">
<stop stop-color="#387EB8"/>
<stop offset="1" stop-color="#366994"/>
</linearGradient>
<linearGradient id="paint1_linear" x1="29.8737" y1="30.1586" x2="69.5497" y2="67.6655" gradientUnits="userSpaceOnUse">
<stop stop-color="#FFE052"/>
<stop offset="1" stop-color="#FFC331"/>
</linearGradient>
</defs>
</svg>
